<?xml version="1.0" encoding="utf-8"?>
<!-- Generator: Adobe Illustrator 23.0.3, SVG Export Plug-In . SVG Version: 6.00 Build 0)  -->
<svg version="1.1" id="Layer_1" xmlns="http://www.w3.org/2000/svg" xmlns:xlink="http://www.w3.org/1999/xlink" x="0px" y="0px"
	 viewBox="0 0 275 220" style="enable-background:new 0 0 275 220;" xml:space="preserve">
<style type="text/css">
	.st0{fill:#919191;stroke:#000000;stroke-width:2;stroke-miterlimit:10;}
	.st1{clip-path:url(#SVGID_2_);}
	.st2{fill:none;stroke:#000000;stroke-miterlimit:10;}
	.st3{fill:none;stroke:#000000;stroke-width:2;stroke-miterlimit:10;}
	.st4{font-family:'TimesNewRomanPS-BoldItalicMT';}
	.st5{font-size:13px;}
	.st6{fill:#848484;}
	.st7{fill:none;stroke:#848484;stroke-miterlimit:10;}
	.st8{font-size:12px;}
	.st9{fill:none;stroke:#FF0000;stroke-width:3;stroke-miterlimit:10;}
	.st10{fill:#FF0000;stroke:#FF0000;stroke-width:2;stroke-miterlimit:10;}
	.st11{fill:#FF0000;}
</style>
<g>
	<polyline class="st0" points="48.9,30.6 48.9,186.6 256.7,186.6 256.7,30.6 48.7,30.6 	"/>
	<g>
		<g>
			<g>
				<g>
					<g>
						<defs>
							<rect id="SVGID_1_" x="39.5" y="30.6" width="9.2" height="156"/>
						</defs>
						<clipPath id="SVGID_2_">
							<use xlink:href="#SVGID_1_"  style="overflow:visible;"/>
						</clipPath>
						<g class="st1">
							<line class="st2" x1="43.8" y1="8.9" x2="-0.3" y2="120"/>
							<line class="st2" x1="45.7" y1="13.5" x2="1.6" y2="124.7"/>
							<line class="st2" x1="47.5" y1="18.2" x2="3.4" y2="129.5"/>
							<line class="st2" x1="49.4" y1="22.8" x2="5.3" y2="134.1"/>
							<line class="st2" x1="51.2" y1="27.6" x2="7.1" y2="138.8"/>
							<line class="st2" x1="53.1" y1="32.1" x2="9" y2="143.4"/>
							<line class="st2" x1="54.9" y1="36.9" x2="10.8" y2="148.2"/>
							<line class="st2" x1="56.8" y1="41.4" x2="12.7" y2="152.7"/>
							<line class="st2" x1="58.6" y1="46.2" x2="14.5" y2="157.5"/>
							<line class="st2" x1="60.5" y1="50.8" x2="16.4" y2="162.1"/>
							<line class="st2" x1="62.3" y1="55.5" x2="18.2" y2="166.8"/>
							<line class="st2" x1="64.2" y1="60.1" x2="20.1" y2="171.4"/>
							<line class="st2" x1="66" y1="64.9" x2="21.9" y2="176.2"/>
							<line class="st2" x1="67.9" y1="69.6" x2="23.8" y2="180.7"/>
							<line class="st2" x1="69.7" y1="74.2" x2="25.6" y2="185.5"/>
							<line class="st2" x1="71.6" y1="79" x2="27.5" y2="190"/>
							<line class="st2" x1="73.4" y1="83.5" x2="29.3" y2="194.8"/>
							<line class="st2" x1="75.3" y1="88.3" x2="31.2" y2="199.4"/>
							<line class="st2" x1="77.1" y1="92.9" x2="33" y2="204.1"/>
							<line class="st2" x1="79" y1="97.6" x2="34.9" y2="208.9"/>
							<line class="st2" x1="80.9" y1="102.2" x2="36.7" y2="213.5"/>
							<line class="st2" x1="82.7" y1="107" x2="38.6" y2="218.2"/>
							<line class="st2" x1="84.6" y1="111.5" x2="40.5" y2="222.8"/>
							<line class="st2" x1="86.4" y1="116.3" x2="42.3" y2="227.6"/>
							<line class="st2" x1="88.3" y1="120.8" x2="44.2" y2="232.1"/>
							<line class="st2" x1="90.1" y1="125.6" x2="46" y2="236.9"/>
							<line class="st2" x1="92" y1="130.2" x2="47.9" y2="241.4"/>
						</g>
					</g>
				</g>
			</g>
			<rect x="39.5" y="30.6" class="st3" width="9.2" height="156"/>
		</g>
	</g>
</g>
<g>
	<g>
		<line class="st2" x1="50" y1="194.4" x2="257.6" y2="194.4"/>
		<line class="st2" x1="50" y1="190.4" x2="50" y2="198.4"/>
		<line class="st2" x1="257.6" y1="190.4" x2="257.6" y2="198.4"/>
	</g>
	<text transform="matrix(1 0 0 1 142.1696 206.8071)" class="st4 st5">nelx</text>
</g>
<g>
	<g>
		<line class="st2" x1="32.1" y1="30.6" x2="32.1" y2="186.6"/>
		<line class="st2" x1="36.1" y1="30.6" x2="28.1" y2="30.6"/>
		<line class="st2" x1="36.1" y1="186.6" x2="28.1" y2="186.6"/>
	</g>
	<text transform="matrix(6.123234e-17 1 -1 6.123234e-17 19.6973 97.3911)" class="st4 st5">nely</text>
</g>
<g>
	<g>
		<g>
			<g>
				<polygon class="st6" points="16.3,56.6 17,55.9 20.4,59.5 23.7,55.9 24.5,56.6 20.4,61 				"/>
			</g>
		</g>
	</g>
	<g>
		<g>
			<polyline class="st7" points="60.3,20 20.4,20 20.4,59.9 			"/>
			<g>
				<polygon class="st6" points="57,24 56.3,23.3 59.9,20 56.3,16.6 57,15.9 61.4,20 				"/>
			</g>
		</g>
	</g>
	<text transform="matrix(1 0 0 1 50.0015 15.3069)" class="st6 st4 st8">x</text>
	<text transform="matrix(1 0 0 1 8.4257 52.2172)" class="st6 st4 st8">y</text>
</g>
<g>
	<g>
		<g>
			<line class="st9" x1="256.6" y1="108.6" x2="256.6" y2="155.6"/>
			<g>
				<polygon class="st10" points="251.6,145.6 256.6,156.6 261.6,145.6 				"/>
			</g>
		</g>
	</g>
	<text transform="matrix(1 0 0 1 261.5535 128.9475)" class="st11 st4 st8">F</text>
</g>
</svg>
