<?xml version="1.0" encoding="utf-8"?>
<!-- Generator: Adobe Illustrator 23.0.3, SVG Export Plug-In . SVG Version: 6.00 Build 0)  -->
<svg version="1.1" id="Layer_1" xmlns="http://www.w3.org/2000/svg" xmlns:xlink="http://www.w3.org/1999/xlink" x="0px" y="0px"
	 viewBox="0 0 280 330" style="enable-background:new 0 0 280 330;" xml:space="preserve">
<style type="text/css">
	.st0{clip-path:url(#SVGID_2_);}
	.st1{fill:none;stroke:#000000;stroke-miterlimit:10;}
	.st2{fill:none;stroke:#000000;stroke-width:2;stroke-miterlimit:10;}
	.st3{fill:#919191;stroke:#000000;stroke-width:2;stroke-miterlimit:10;}
	.st4{font-family:'TimesNewRomanPS-BoldItalicMT';}
	.st5{font-size:13px;}
	.st6{fill:none;stroke:#848484;stroke-miterlimit:10;}
	.st7{fill:#848484;}
	.st8{font-size:12px;}
	.st9{fill:none;stroke:#FF0000;stroke-width:3;stroke-miterlimit:10;}
	.st10{fill:#FF0000;stroke:#FF0000;stroke-width:2;stroke-miterlimit:10;}
	.st11{fill:#FF0000;}
</style>
<g>
	<g>
		<g>
			<g>
				<g>
					<g>
						<g>
							<defs>
								<rect id="SVGID_1_" x="36.3" y="290.8" width="216" height="11"/>
							</defs>
							<clipPath id="SVGID_2_">
								<use xlink:href="#SVGID_1_"  style="overflow:visible;"/>
							</clipPath>
							<g class="st0">
								<line class="st1" x1="282.3" y1="296" x2="128.5" y2="243.2"/>
								<line class="st1" x1="276" y1="298.2" x2="121.9" y2="245.5"/>
								<line class="st1" x1="269.4" y1="300.4" x2="115.3" y2="247.7"/>
								<line class="st1" x1="263.1" y1="302.7" x2="109" y2="249.9"/>
								<line class="st1" x1="256.5" y1="304.8" x2="102.4" y2="252.1"/>
								<line class="st1" x1="250.2" y1="307.1" x2="96.1" y2="254.4"/>
								<line class="st1" x1="243.6" y1="309.2" x2="89.5" y2="256.5"/>
								<line class="st1" x1="237.3" y1="311.5" x2="83.2" y2="258.8"/>
								<line class="st1" x1="230.7" y1="313.7" x2="76.6" y2="260.9"/>
								<line class="st1" x1="224.4" y1="315.9" x2="70.2" y2="263.2"/>
								<line class="st1" x1="217.7" y1="318.1" x2="63.6" y2="265.4"/>
								<line class="st1" x1="211.4" y1="320.4" x2="57.3" y2="267.6"/>
								<line class="st1" x1="204.8" y1="322.5" x2="50.7" y2="269.8"/>
								<line class="st1" x1="198.2" y1="324.8" x2="44.4" y2="272.1"/>
								<line class="st1" x1="191.9" y1="326.9" x2="37.8" y2="274.2"/>
								<line class="st1" x1="185.3" y1="329.2" x2="31.5" y2="276.5"/>
								<line class="st1" x1="179" y1="331.4" x2="24.9" y2="278.6"/>
								<line class="st1" x1="172.4" y1="333.6" x2="18.6" y2="280.9"/>
								<line class="st1" x1="166.1" y1="335.8" x2="12" y2="283.1"/>
								<line class="st1" x1="159.5" y1="338.1" x2="5.4" y2="285.3"/>
								<line class="st1" x1="153.2" y1="340.3" x2="-1" y2="287.5"/>
								<line class="st1" x1="146.5" y1="342.5" x2="-7.6" y2="289.8"/>
								<line class="st1" x1="140.2" y1="344.8" x2="-13.9" y2="292"/>
								<line class="st1" x1="133.6" y1="346.9" x2="-20.5" y2="294.2"/>
								<line class="st1" x1="127.3" y1="349.2" x2="-26.8" y2="296.5"/>
								<line class="st1" x1="120.7" y1="351.3" x2="-33.4" y2="298.6"/>
								<line class="st1" x1="114.4" y1="353.6" x2="-39.7" y2="300.9"/>
							</g>
						</g>
					</g>
				</g>
			</g>
			<rect x="36.3" y="290.8" class="st2" width="216" height="11"/>
		</g>
	</g>
	<path class="st3" d="M252.3,132.8v-58h-216v58h43.4l-0.4,95h-43v63h216v-63h-44.1v-95H252.3z M165.9,227.7h-43.2v-94.8h43.2V227.7z
		"/>
</g>
<g>
	<g>
		<line class="st1" x1="36.3" y1="309.8" x2="252.3" y2="309.8"/>
		<line class="st1" x1="36.3" y1="305.8" x2="36.3" y2="313.8"/>
		<line class="st1" x1="252.3" y1="305.8" x2="252.3" y2="313.8"/>
	</g>
	<text transform="matrix(1 0 0 1 131.5194 322.2444)" class="st4 st5">nelx</text>
</g>
<g>
	<g>
		<line class="st1" x1="29.3" y1="74.8" x2="29.3" y2="290.8"/>
		<line class="st1" x1="33.3" y1="74.8" x2="25.3" y2="74.8"/>
		<line class="st1" x1="33.3" y1="290.8" x2="25.3" y2="290.8"/>
	</g>
	<text transform="matrix(6.123234e-17 1 -1 6.123234e-17 16.8926 169.9671)" class="st4 st5">nely</text>
</g>
<g>
	<g>
		<g>
			<line class="st6" x1="19.6" y1="14.7" x2="19.6" y2="54.6"/>
			<g>
				<polygon class="st7" points="15.5,51.3 16.2,50.6 19.6,54.2 22.9,50.6 23.7,51.3 19.6,55.7 				"/>
			</g>
		</g>
	</g>
	<g>
		<g>
			<line class="st6" x1="19.6" y1="14.7" x2="59.5" y2="14.7"/>
			<g>
				<polygon class="st7" points="56.2,18.7 55.5,18 59.1,14.7 55.5,11.3 56.2,10.6 60.6,14.7 				"/>
			</g>
		</g>
	</g>
	<text transform="matrix(1 0 0 1 49.1976 9.9728)" class="st7 st4 st8">x</text>
	<text transform="matrix(1 0 0 1 7.6218 46.8831)" class="st7 st4 st8">y</text>
</g>
<g>
	<g>
		<g>
			<line class="st9" x1="42.4" y1="23.8" x2="42.4" y2="70.8"/>
			<g>
				<polygon class="st10" points="37.4,60.8 42.4,71.8 47.4,60.8 				"/>
			</g>
		</g>
	</g>
	<g>
		<g>
			<line class="st9" x1="76.6" y1="23.8" x2="76.6" y2="70.8"/>
			<g>
				<polygon class="st10" points="71.6,60.8 76.6,71.8 81.6,60.8 				"/>
			</g>
		</g>
	</g>
	<g>
		<g>
			<line class="st9" x1="110.7" y1="23.8" x2="110.7" y2="70.8"/>
			<g>
				<polygon class="st10" points="105.7,60.8 110.7,71.8 115.7,60.8 				"/>
			</g>
		</g>
	</g>
	<g>
		<g>
			<line class="st9" x1="144.9" y1="23.8" x2="144.9" y2="70.8"/>
			<g>
				<polygon class="st10" points="139.9,60.8 144.9,71.8 149.9,60.8 				"/>
			</g>
		</g>
	</g>
	<g>
		<g>
			<line class="st9" x1="179" y1="23.8" x2="179" y2="70.8"/>
			<g>
				<polygon class="st10" points="174,60.8 179,71.8 184,60.8 				"/>
			</g>
		</g>
	</g>
	<g>
		<g>
			<line class="st9" x1="213.2" y1="23.8" x2="213.2" y2="70.8"/>
			<g>
				<polygon class="st10" points="208.2,60.8 213.2,71.8 218.2,60.8 				"/>
			</g>
		</g>
	</g>
	<g>
		<g>
			<line class="st9" x1="247.3" y1="23.8" x2="247.3" y2="70.8"/>
			<g>
				<polygon class="st10" points="242.3,60.8 247.3,71.8 252.3,60.8 				"/>
			</g>
		</g>
	</g>
	<text transform="matrix(1 0 0 1 128.3701 23.8303)" class="st11 st4 st8">F</text>
</g>
</svg>
