<?xml version="1.0" encoding="utf-8"?>
<!-- Generator: Adobe Illustrator 23.0.3, SVG Export Plug-In . SVG Version: 6.00 Build 0)  -->
<svg version="1.1" id="Layer_1" xmlns="http://www.w3.org/2000/svg" xmlns:xlink="http://www.w3.org/1999/xlink" x="0px" y="0px"
	 viewBox="0 0 260 270" style="enable-background:new 0 0 260 270;" xml:space="preserve">
<style type="text/css">
	.st0{fill:#919191;stroke:#000000;stroke-width:2;stroke-miterlimit:10;}
	.st1{clip-path:url(#SVGID_2_);}
	.st2{fill:none;stroke:#000000;stroke-miterlimit:10;}
	.st3{fill:none;stroke:#000000;stroke-width:2;stroke-miterlimit:10;}
	.st4{font-family:'TimesNewRomanPS-BoldItalicMT';}
	.st5{font-size:13px;}
	.st6{font-size:12px;}
	.st7{fill:none;stroke:#848484;stroke-miterlimit:10;}
	.st8{fill:#848484;}
	.st9{fill:none;stroke:#FF0000;stroke-width:3;stroke-miterlimit:10;}
	.st10{fill:#FF0000;stroke:#FF0000;stroke-width:2;stroke-miterlimit:10;}
	.st11{fill:#FF0000;}
</style>
<g>
	<polygon class="st0" points="250.1,174.6 106.1,174.6 106.1,30.6 34.1,30.6 34.1,246.6 250.1,246.6 	"/>
	<g>
		<g>
			<g>
				<g>
					<defs>
						<rect id="SVGID_1_" x="34.1" y="21.4" width="71.9" height="9.2"/>
					</defs>
					<clipPath id="SVGID_2_">
						<use xlink:href="#SVGID_1_"  style="overflow:visible;"/>
					</clipPath>
					<g class="st1">
						<line class="st2" x1="116" y1="25.7" x2="64.8" y2="-18.4"/>
						<line class="st2" x1="113.9" y1="27.6" x2="62.6" y2="-16.5"/>
						<line class="st2" x1="111.7" y1="29.4" x2="60.4" y2="-14.7"/>
						<line class="st2" x1="109.6" y1="31.3" x2="58.3" y2="-12.8"/>
						<line class="st2" x1="107.4" y1="33.1" x2="56.1" y2="-11"/>
						<line class="st2" x1="105.3" y1="35" x2="54" y2="-9.1"/>
						<line class="st2" x1="103.1" y1="36.8" x2="51.8" y2="-7.3"/>
						<line class="st2" x1="101" y1="38.7" x2="49.7" y2="-5.4"/>
						<line class="st2" x1="98.8" y1="40.5" x2="47.5" y2="-3.6"/>
						<line class="st2" x1="96.7" y1="42.4" x2="45.4" y2="-1.7"/>
						<line class="st2" x1="94.5" y1="44.2" x2="43.2" y2="0.1"/>
						<line class="st2" x1="92.4" y1="46.1" x2="41.1" y2="2"/>
						<line class="st2" x1="90.2" y1="47.9" x2="38.9" y2="3.8"/>
						<line class="st2" x1="88" y1="49.8" x2="36.8" y2="5.7"/>
						<line class="st2" x1="85.9" y1="51.6" x2="34.6" y2="7.5"/>
						<line class="st2" x1="83.7" y1="53.5" x2="32.5" y2="9.4"/>
						<line class="st2" x1="81.6" y1="55.3" x2="30.3" y2="11.2"/>
						<line class="st2" x1="79.4" y1="57.2" x2="28.2" y2="13.1"/>
						<line class="st2" x1="77.3" y1="59" x2="26" y2="14.9"/>
						<line class="st2" x1="75.1" y1="60.9" x2="23.8" y2="16.8"/>
						<line class="st2" x1="73" y1="62.8" x2="21.7" y2="18.6"/>
						<line class="st2" x1="70.8" y1="64.6" x2="19.5" y2="20.5"/>
						<line class="st2" x1="68.7" y1="66.5" x2="17.4" y2="22.4"/>
						<line class="st2" x1="66.5" y1="68.3" x2="15.2" y2="24.2"/>
						<line class="st2" x1="64.4" y1="70.2" x2="13.1" y2="26.1"/>
						<line class="st2" x1="62.2" y1="72" x2="10.9" y2="27.9"/>
						<line class="st2" x1="60.1" y1="73.9" x2="8.8" y2="29.8"/>
					</g>
				</g>
			</g>
			<rect x="34.1" y="21.4" class="st3" width="71.9" height="9.2"/>
		</g>
	</g>
</g>
<g>
	<g>
		<line class="st2" x1="34.1" y1="253.6" x2="250.1" y2="253.6"/>
		<line class="st2" x1="34.1" y1="249.6" x2="34.1" y2="257.6"/>
		<line class="st2" x1="250.1" y1="249.6" x2="250.1" y2="257.6"/>
	</g>
	<text transform="matrix(1 0 0 1 129.3233 266.0139)" class="st4 st5">nelx</text>
</g>
<g>
	<g>
		<line class="st2" x1="27.1" y1="30.6" x2="27.1" y2="246.6"/>
		<line class="st2" x1="31.1" y1="30.6" x2="23.1" y2="30.6"/>
		<line class="st2" x1="31.1" y1="246.6" x2="23.1" y2="246.6"/>
	</g>
	<text transform="matrix(6.123234e-17 1 -1 6.123234e-17 14.6979 125.7366)" class="st4 st5">nely</text>
</g>
<text transform="matrix(1 0 0 1 107.9389 169.3626)" class="st4 st6">(minx, maxy)</text>
<g>
	<g>
		<line class="st7" x1="17.4" y1="13" x2="17.4" y2="52.9"/>
		<g>
			<polygon class="st8" points="13.3,49.6 14,48.9 17.4,52.5 20.7,48.9 21.5,49.6 17.4,54 			"/>
		</g>
	</g>
</g>
<g>
	<g>
		<line class="st7" x1="17.4" y1="13" x2="57.3" y2="13"/>
		<g>
			<polygon class="st8" points="54,17 53.3,16.3 56.9,13 53.3,9.6 54,8.9 58.4,13 			"/>
		</g>
	</g>
</g>
<text transform="matrix(1 0 0 1 47.0015 8.3069)" class="st8 st4 st6">x</text>
<text transform="matrix(1 0 0 1 5.4257 45.2172)" class="st8 st4 st6">y</text>
<circle cx="106.4" cy="174.3" r="1.8"/>
<g>
	<g>
		<g>
			<line class="st9" x1="249.1" y1="123.4" x2="249.1" y2="170.4"/>
			<g>
				<polygon class="st10" points="244.1,160.4 249.1,171.4 254.1,160.4 				"/>
			</g>
		</g>
	</g>
	<text transform="matrix(1 0 0 1 235.8416 143.7655)" class="st11 st4 st6">F</text>
</g>
</svg>
