<?xml version="1.0" encoding="utf-8"?>
<!-- Generator: Adobe Illustrator 23.0.3, SVG Export Plug-In . SVG Version: 6.00 Build 0)  -->
<svg version="1.1" id="Layer_1" xmlns="http://www.w3.org/2000/svg" xmlns:xlink="http://www.w3.org/1999/xlink" x="0px" y="0px"
	 viewBox="0 0 231.55 73.3" style="enable-background:new 0 0 231.55 73.3;" xml:space="preserve">
<style type="text/css">
	.st0{fill:none;stroke:#000000;stroke-width:0.5;stroke-miterlimit:10;}
	.st1{fill:none;stroke:#000000;stroke-width:0.25;stroke-miterlimit:10;}
	.st2{clip-path:url(#SVGID_2_);}
	.st3{fill:none;stroke:#000000;stroke-width:0.125;stroke-miterlimit:10;}
	.st4{clip-path:url(#SVGID_4_);}
	.st5{fill:none;stroke:#000000;stroke-miterlimit:10;}
</style>
<rect x="7.76" y="22.33" class="st0" width="216" height="35.4"/>
<polygon class="st1" points="7.76,58.33 2.67,65.53 12.85,65.53 "/>
<polygon class="st1" points="223.76,57.73 218.67,64.93 228.85,64.93 "/>
<circle class="st1" cx="4.42" cy="67.38" r="1.75"/>
<circle class="st1" cx="11.1" cy="67.38" r="1.75"/>
<g>
	<g>
		<defs>
			<rect id="SVGID_1_" y="69.13" width="15.52" height="4.2"/>
		</defs>
		<clipPath id="SVGID_2_">
			<use xlink:href="#SVGID_1_"  style="overflow:visible;"/>
		</clipPath>
		<g class="st2">
			<line class="st3" x1="-21.82" y1="72.52" x2="6.46" y2="100.81"/>
			<line class="st3" x1="-20.79" y1="71.5" x2="7.49" y2="99.78"/>
			<line class="st3" x1="-19.76" y1="70.47" x2="8.52" y2="98.75"/>
			<line class="st3" x1="-18.73" y1="69.44" x2="9.55" y2="97.72"/>
			<line class="st3" x1="-17.7" y1="68.41" x2="10.58" y2="96.69"/>
			<line class="st3" x1="-16.67" y1="67.38" x2="11.61" y2="95.66"/>
			<line class="st3" x1="-15.64" y1="66.35" x2="12.64" y2="94.63"/>
			<line class="st3" x1="-14.62" y1="65.32" x2="13.67" y2="93.6"/>
			<line class="st3" x1="-13.59" y1="64.29" x2="14.7" y2="92.57"/>
			<line class="st3" x1="-12.56" y1="63.26" x2="15.73" y2="91.55"/>
			<line class="st3" x1="-11.53" y1="62.23" x2="16.76" y2="90.52"/>
			<line class="st3" x1="-10.5" y1="61.2" x2="17.79" y2="89.49"/>
			<line class="st3" x1="-9.47" y1="60.17" x2="18.82" y2="88.46"/>
			<line class="st3" x1="-8.44" y1="59.14" x2="19.84" y2="87.43"/>
			<line class="st3" x1="-7.41" y1="58.12" x2="20.87" y2="86.4"/>
			<line class="st3" x1="-6.38" y1="57.09" x2="21.9" y2="85.37"/>
			<line class="st3" x1="-5.35" y1="56.06" x2="22.93" y2="84.34"/>
			<line class="st3" x1="-4.32" y1="55.03" x2="23.96" y2="83.31"/>
			<line class="st3" x1="-3.29" y1="54" x2="24.99" y2="82.28"/>
			<line class="st3" x1="-2.26" y1="52.97" x2="26.02" y2="81.25"/>
			<line class="st3" x1="-1.24" y1="51.94" x2="27.05" y2="80.22"/>
			<line class="st3" x1="-0.21" y1="50.91" x2="28.08" y2="79.19"/>
			<line class="st3" x1="0.82" y1="49.88" x2="29.11" y2="78.17"/>
			<line class="st3" x1="1.85" y1="48.85" x2="30.14" y2="77.14"/>
			<line class="st3" x1="2.88" y1="47.82" x2="31.17" y2="76.11"/>
			<line class="st3" x1="3.91" y1="46.79" x2="32.2" y2="75.08"/>
			<line class="st3" x1="4.94" y1="45.76" x2="33.22" y2="74.05"/>
			<line class="st3" x1="5.97" y1="44.73" x2="34.25" y2="73.02"/>
			<line class="st3" x1="7" y1="43.71" x2="35.28" y2="71.99"/>
			<line class="st3" x1="8.03" y1="42.68" x2="36.31" y2="70.96"/>
			<line class="st3" x1="9.06" y1="41.65" x2="37.34" y2="69.93"/>
		</g>
	</g>
	<rect y="69.13" class="st1" width="15.52" height="4.2"/>
</g>
<g>
	<g>
		<defs>
			<rect id="SVGID_3_" x="216" y="64.93" width="15.52" height="4.2"/>
		</defs>
		<clipPath id="SVGID_4_">
			<use xlink:href="#SVGID_3_"  style="overflow:visible;"/>
		</clipPath>
		<g class="st4">
			<line class="st3" x1="194.18" y1="68.33" x2="222.46" y2="96.61"/>
			<line class="st3" x1="195.21" y1="67.3" x2="223.49" y2="95.58"/>
			<line class="st3" x1="196.24" y1="66.27" x2="224.52" y2="94.55"/>
			<line class="st3" x1="197.27" y1="65.24" x2="225.55" y2="93.52"/>
			<line class="st3" x1="198.3" y1="64.21" x2="226.58" y2="92.49"/>
			<line class="st3" x1="199.33" y1="63.18" x2="227.61" y2="91.47"/>
			<line class="st3" x1="200.36" y1="62.15" x2="228.64" y2="90.44"/>
			<line class="st3" x1="201.38" y1="61.12" x2="229.67" y2="89.41"/>
			<line class="st3" x1="202.41" y1="60.09" x2="230.7" y2="88.38"/>
			<line class="st3" x1="203.44" y1="59.06" x2="231.73" y2="87.35"/>
			<line class="st3" x1="204.47" y1="58.03" x2="232.76" y2="86.32"/>
			<line class="st3" x1="205.5" y1="57.01" x2="233.79" y2="85.29"/>
			<line class="st3" x1="206.53" y1="55.98" x2="234.82" y2="84.26"/>
			<line class="st3" x1="207.56" y1="54.95" x2="235.84" y2="83.23"/>
			<line class="st3" x1="208.59" y1="53.92" x2="236.87" y2="82.2"/>
			<line class="st3" x1="209.62" y1="52.89" x2="237.9" y2="81.17"/>
			<line class="st3" x1="210.65" y1="51.86" x2="238.93" y2="80.14"/>
			<line class="st3" x1="211.68" y1="50.83" x2="239.96" y2="79.11"/>
			<line class="st3" x1="212.71" y1="49.8" x2="240.99" y2="78.09"/>
			<line class="st3" x1="213.74" y1="48.77" x2="242.02" y2="77.06"/>
			<line class="st3" x1="214.76" y1="47.74" x2="243.05" y2="76.03"/>
			<line class="st3" x1="215.79" y1="46.71" x2="244.08" y2="75"/>
			<line class="st3" x1="216.82" y1="45.68" x2="245.11" y2="73.97"/>
			<line class="st3" x1="217.85" y1="44.65" x2="246.14" y2="72.94"/>
			<line class="st3" x1="218.88" y1="43.63" x2="247.17" y2="71.91"/>
			<line class="st3" x1="219.91" y1="42.6" x2="248.2" y2="70.88"/>
			<line class="st3" x1="220.94" y1="41.57" x2="249.22" y2="69.85"/>
			<line class="st3" x1="221.97" y1="40.54" x2="250.25" y2="68.82"/>
			<line class="st3" x1="223" y1="39.51" x2="251.28" y2="67.79"/>
			<line class="st3" x1="224.03" y1="38.48" x2="252.31" y2="66.76"/>
			<line class="st3" x1="225.06" y1="37.45" x2="253.34" y2="65.73"/>
		</g>
	</g>
	<rect x="216" y="64.93" class="st1" width="15.52" height="4.2"/>
</g>
<g>
	<g>
		<g>
			<line class="st5" x1="57.89" y1="0" x2="57.89" y2="21.25"/>
			<g>
				<polygon points="53.8,17.94 54.53,17.25 57.89,20.87 61.24,17.25 61.98,17.94 57.89,22.33 				"/>
			</g>
		</g>
	</g>
	<g>
		<g>
			<line class="st5" x1="77.18" y1="0" x2="77.18" y2="21.25"/>
			<g>
				<polygon points="73.09,17.94 73.83,17.25 77.18,20.87 80.54,17.25 81.27,17.94 77.18,22.33 				"/>
			</g>
		</g>
	</g>
	<g>
		<g>
			<line class="st5" x1="96.48" y1="0" x2="96.48" y2="21.25"/>
			<g>
				<polygon points="92.39,17.94 93.12,17.25 96.48,20.87 99.84,17.25 100.57,17.94 96.48,22.33 				"/>
			</g>
		</g>
	</g>
	<g>
		<g>
			<line class="st5" x1="115.78" y1="0" x2="115.78" y2="21.25"/>
			<g>
				<polygon points="111.69,17.94 112.42,17.25 115.78,20.87 119.13,17.25 119.86,17.94 115.78,22.33 				"/>
			</g>
		</g>
	</g>
	<g>
		<g>
			<line class="st5" x1="135.07" y1="0" x2="135.07" y2="21.25"/>
			<g>
				<polygon points="130.98,17.94 131.71,17.25 135.07,20.87 138.43,17.25 139.16,17.94 135.07,22.33 				"/>
			</g>
		</g>
	</g>
	<g>
		<g>
			<line class="st5" x1="154.37" y1="0" x2="154.37" y2="21.25"/>
			<g>
				<polygon points="150.28,17.94 151.01,17.25 154.37,20.87 157.72,17.25 158.46,17.94 154.37,22.33 				"/>
			</g>
		</g>
	</g>
	<g>
		<g>
			<line class="st5" x1="173.66" y1="0" x2="173.66" y2="21.25"/>
			<g>
				<polygon points="169.57,17.94 170.31,17.25 173.66,20.87 177.02,17.25 177.75,17.94 173.66,22.33 				"/>
			</g>
		</g>
	</g>
</g>
</svg>
