<?xml version="1.0" encoding="utf-8"?>
<!-- Generator: Adobe Illustrator 23.0.3, SVG Export Plug-In . SVG Version: 6.00 Build 0)  -->
<svg version="1.1" id="Layer_1" xmlns="http://www.w3.org/2000/svg" xmlns:xlink="http://www.w3.org/1999/xlink" x="0px" y="0px"
	 viewBox="0 0 500 170" style="enable-background:new 0 0 500 170;" xml:space="preserve">
<style type="text/css">
	.st0{fill:#919191;stroke:#000000;stroke-miterlimit:10;}
	.st1{fill:none;stroke:#000000;stroke-width:0.5;stroke-miterlimit:10;}
	.st2{clip-path:url(#SVGID_2_);}
	.st3{clip-path:url(#SVGID_4_);}
	.st4{fill:none;stroke:#FF0000;stroke-miterlimit:10;}
	.st5{fill:#FF0000;}
	.st6{font-family:'TimesNewRomanPS-BoldItalicMT';}
	.st7{font-size:14px;}
	.st8{font-size:18px;}
</style>
<rect x="43.3" y="34" class="st0" width="432" height="70.8"/>
<g>
	<circle class="st1" cx="36.5" cy="124.2" r="3.6"/>
	<circle class="st1" cx="49.9" cy="124.2" r="3.6"/>
	<polygon class="st1" points="43.3,106 33.1,120.4 53.5,120.4 	"/>
	<g>
		<g>
			<g>
				<g>
					<g>
						<g>
							<defs>
								<rect id="SVGID_1_" x="27.7" y="127.6" width="31" height="8.4"/>
							</defs>
							<clipPath id="SVGID_2_">
								<use xlink:href="#SVGID_1_"  style="overflow:visible;"/>
							</clipPath>
							<g class="st2">
								<line class="st1" x1="-13.9" y1="132.4" x2="42.7" y2="189"/>
								<line class="st1" x1="-11.7" y1="130.2" x2="44.7" y2="186.8"/>
								<line class="st1" x1="-9.7" y1="128.2" x2="46.9" y2="184.8"/>
								<line class="st1" x1="-7.7" y1="126.2" x2="48.9" y2="182.8"/>
								<line class="st1" x1="-5.5" y1="124.2" x2="50.9" y2="180.6"/>
								<line class="st1" x1="-3.5" y1="122" x2="53.1" y2="178.6"/>
								<line class="st1" x1="-1.5" y1="120" x2="55.1" y2="176.6"/>
								<line class="st1" x1="0.5" y1="118" x2="57.1" y2="174.4"/>
								<line class="st1" x1="2.7" y1="115.8" x2="59.3" y2="172.4"/>
								<line class="st1" x1="4.7" y1="113.8" x2="61.3" y2="170.4"/>
								<line class="st1" x1="6.7" y1="111.8" x2="63.3" y2="168.4"/>
								<line class="st1" x1="8.9" y1="109.6" x2="65.3" y2="166.2"/>
								<line class="st1" x1="10.9" y1="107.6" x2="67.5" y2="164.2"/>
								<line class="st1" x1="12.9" y1="105.6" x2="69.5" y2="162.2"/>
								<line class="st1" x1="14.9" y1="103.6" x2="71.5" y2="160"/>
								<line class="st1" x1="17.1" y1="101.4" x2="73.7" y2="158"/>
								<line class="st1" x1="19.1" y1="99.4" x2="75.7" y2="156"/>
								<line class="st1" x1="21.1" y1="97.4" x2="77.7" y2="154"/>
								<line class="st1" x1="23.3" y1="95.2" x2="79.7" y2="151.8"/>
								<line class="st1" x1="25.3" y1="93.2" x2="81.9" y2="149.8"/>
								<line class="st1" x1="27.3" y1="91.2" x2="83.9" y2="147.8"/>
								<line class="st1" x1="29.3" y1="89.2" x2="85.9" y2="145.6"/>
								<line class="st1" x1="31.5" y1="87" x2="88.1" y2="143.6"/>
								<line class="st1" x1="33.5" y1="85" x2="90.1" y2="141.6"/>
								<line class="st1" x1="35.5" y1="83" x2="92.1" y2="139.6"/>
								<line class="st1" x1="37.7" y1="80.8" x2="94.1" y2="137.4"/>
								<line class="st1" x1="39.7" y1="78.8" x2="96.3" y2="135.4"/>
								<line class="st1" x1="41.7" y1="76.8" x2="98.3" y2="133.4"/>
								<line class="st1" x1="43.9" y1="74.8" x2="100.3" y2="131.2"/>
							</g>
						</g>
					</g>
				</g>
			</g>
		</g>
		<rect x="27.7" y="127.6" class="st1" width="31" height="8.4"/>
	</g>
</g>
<g>
	<polygon class="st1" points="475.3,104.8 465.1,119.2 485.5,119.2 	"/>
	<g>
		<g>
			<g>
				<g>
					<g>
						<g>
							<defs>
								<rect id="SVGID_3_" x="459.7" y="119.2" width="31" height="8.4"/>
							</defs>
							<clipPath id="SVGID_4_">
								<use xlink:href="#SVGID_3_"  style="overflow:visible;"/>
							</clipPath>
							<g class="st3">
								<line class="st1" x1="416.1" y1="126" x2="472.7" y2="182.6"/>
								<line class="st1" x1="418.1" y1="124" x2="474.7" y2="180.6"/>
								<line class="st1" x1="420.3" y1="121.8" x2="476.7" y2="178.4"/>
								<line class="st1" x1="422.3" y1="119.8" x2="478.9" y2="176.4"/>
								<line class="st1" x1="424.3" y1="117.8" x2="480.9" y2="174.4"/>
								<line class="st1" x1="426.5" y1="115.8" x2="482.9" y2="172.2"/>
								<line class="st1" x1="428.5" y1="113.6" x2="485.1" y2="170.2"/>
								<line class="st1" x1="430.5" y1="111.6" x2="487.1" y2="168.2"/>
								<line class="st1" x1="432.5" y1="109.6" x2="489.1" y2="166.2"/>
								<line class="st1" x1="434.7" y1="107.4" x2="491.3" y2="164"/>
								<line class="st1" x1="436.7" y1="105.4" x2="493.3" y2="162"/>
								<line class="st1" x1="438.7" y1="103.4" x2="495.3" y2="160"/>
								<line class="st1" x1="440.9" y1="101.4" x2="497.3" y2="157.8"/>
								<line class="st1" x1="442.9" y1="99.2" x2="499.5" y2="155.8"/>
								<line class="st1" x1="444.9" y1="97.2" x2="501.5" y2="153.8"/>
								<line class="st1" x1="446.9" y1="95.2" x2="503.5" y2="151.6"/>
								<line class="st1" x1="449.1" y1="93" x2="505.7" y2="149.6"/>
								<line class="st1" x1="451.1" y1="91" x2="507.7" y2="147.6"/>
								<line class="st1" x1="453.1" y1="89" x2="509.7" y2="145.6"/>
								<line class="st1" x1="455.3" y1="86.8" x2="511.7" y2="143.4"/>
								<line class="st1" x1="457.3" y1="84.8" x2="513.9" y2="141.4"/>
								<line class="st1" x1="459.3" y1="82.8" x2="515.9" y2="139.4"/>
								<line class="st1" x1="461.3" y1="80.8" x2="517.9" y2="137.2"/>
								<line class="st1" x1="463.5" y1="78.6" x2="520.1" y2="135.2"/>
								<line class="st1" x1="465.5" y1="76.6" x2="522.1" y2="133.2"/>
								<line class="st1" x1="467.5" y1="74.6" x2="524.1" y2="131.2"/>
								<line class="st1" x1="469.7" y1="72.4" x2="526.1" y2="129"/>
								<line class="st1" x1="471.7" y1="70.4" x2="528.3" y2="127"/>
								<line class="st1" x1="473.7" y1="68.4" x2="530.3" y2="125"/>
								<line class="st1" x1="475.9" y1="66.4" x2="532.3" y2="122.8"/>
								<line class="st1" x1="477.9" y1="64.2" x2="534.5" y2="120.8"/>
							</g>
						</g>
					</g>
				</g>
			</g>
		</g>
		<rect x="459.7" y="119.2" class="st1" width="31" height="8.4"/>
	</g>
</g>
<g>
	<g>
		<g>
			<g>
				<line class="st4" x1="259.3" y1="1.4" x2="259.3" y2="26"/>
				<g>
					<polygon class="st5" points="254.3,24.6 259.3,33.2 264.3,24.6 					"/>
				</g>
			</g>
		</g>
	</g>
	<text transform="matrix(1 0 0 1 267.4727 17.2207)" class="st5 st6 st7">F</text>
</g>
<g>
	<g>
		<g>
			<g>
				<line class="st4" x1="299.7" y1="1.4" x2="299.7" y2="26"/>
				<g>
					<polygon class="st5" points="294.7,24.6 299.7,33.2 304.7,24.6 					"/>
				</g>
			</g>
		</g>
	</g>
	<text transform="matrix(1 0 0 1 307.7902 17.1914)" class="st5 st6 st7">F</text>
</g>
<g>
	<g>
		<g>
			<g>
				<line class="st4" x1="220.1" y1="1.4" x2="220.1" y2="26"/>
				<g>
					<polygon class="st5" points="215.1,24.6 220.1,33.2 225.1,24.6 					"/>
				</g>
			</g>
		</g>
	</g>
	<text transform="matrix(1 0 0 1 228.2524 17.1914)" class="st5 st6 st7">F</text>
</g>
<g>
	<g>
		<g>
			<g>
				<line class="st4" x1="180.3" y1="1.4" x2="180.3" y2="26"/>
				<g>
					<polygon class="st5" points="175.3,24.6 180.3,33.2 185.3,24.6 					"/>
				</g>
			</g>
		</g>
	</g>
	<text transform="matrix(1 0 0 1 188.5684 17.1914)" class="st5 st6 st7">F</text>
</g>
<g>
	<g>
		<g>
			<g>
				<line class="st4" x1="140.3" y1="1.4" x2="140.3" y2="26"/>
				<g>
					<polygon class="st5" points="135.3,24.6 140.3,33.2 145.3,24.6 					"/>
				</g>
			</g>
		</g>
	</g>
	<text transform="matrix(1 0 0 1 148.5039 17.1914)" class="st5 st6 st7">F</text>
</g>
<g>
	<g>
		<g>
			<g>
				<line class="st4" x1="339.9" y1="1.4" x2="339.9" y2="26"/>
				<g>
					<polygon class="st5" points="334.9,24.6 339.9,33.2 344.9,24.6 					"/>
				</g>
			</g>
		</g>
	</g>
	<text transform="matrix(1 0 0 1 348.1484 17.1621)" class="st5 st6 st7">F</text>
</g>
<g>
	<g>
		<g>
			<g>
				<line class="st4" x1="379.9" y1="1.4" x2="379.9" y2="26"/>
				<g>
					<polygon class="st5" points="374.9,24.6 379.9,33.2 384.9,24.6 					"/>
				</g>
			</g>
		</g>
	</g>
	<text transform="matrix(1 0 0 1 388.084 17.1914)" class="st5 st6 st7">F</text>
</g>
<g>
	<g>
		<line class="st1" x1="43.3" y1="146" x2="475.3" y2="146"/>
		<line class="st1" x1="43.3" y1="138" x2="43.3" y2="154"/>
		<line class="st1" x1="475.3" y1="138" x2="475.3" y2="154"/>
	</g>
	<text transform="matrix(1 0 0 1 243.2534 165.9492)" class="st6 st8">nelx</text>
</g>
<g>
	<g>
		<line class="st1" x1="31.1" y1="34" x2="31.1" y2="104.8"/>
		<line class="st1" x1="39.1" y1="34" x2="23.1" y2="34"/>
		<line class="st1" x1="39.1" y1="104.8" x2="23.1" y2="104.8"/>
	</g>
	<text transform="matrix(6.123234e-17 1 -1 6.123234e-17 8.752 51.1665)" class="st6 st8">nely</text>
</g>
</svg>
