<?xml version="1.0" encoding="utf-8"?>
<!-- Generator: Adobe Illustrator 23.0.3, SVG Export Plug-In . SVG Version: 6.00 Build 0)  -->
<svg version="1.1" id="Layer_1" xmlns="http://www.w3.org/2000/svg" xmlns:xlink="http://www.w3.org/1999/xlink" x="0px" y="0px"
	 viewBox="0 0 250 85" style="enable-background:new 0 0 250 85;" xml:space="preserve">
<style type="text/css">
	.st0{fill:#919191;stroke:#000000;stroke-miterlimit:10;}
	.st1{fill:none;stroke:#000000;stroke-width:0.5;stroke-miterlimit:10;}
	.st2{clip-path:url(#SVGID_2_);}
	.st3{clip-path:url(#SVGID_4_);}
	.st4{fill:none;stroke:#FF0000;stroke-miterlimit:10;}
	.st5{fill:#FF0000;}
	.st6{font-family:'TimesNewRomanPS-BoldItalicMT';}
	.st7{font-size:7px;}
	.st8{font-size:9px;}
</style>
<rect x="21.5" y="16.3" class="st0" width="216" height="35.4"/>
<g>
	<circle class="st1" cx="18.1" cy="61.4" r="1.8"/>
	<circle class="st1" cx="24.8" cy="61.4" r="1.8"/>
	<polygon class="st1" points="21.5,52.3 16.4,59.5 26.6,59.5 	"/>
	<g>
		<g>
			<g>
				<defs>
					<rect id="SVGID_1_" x="13.7" y="63.1" width="15.5" height="4.2"/>
				</defs>
				<clipPath id="SVGID_2_">
					<use xlink:href="#SVGID_1_"  style="overflow:visible;"/>
				</clipPath>
				<g class="st2">
					<line class="st1" x1="-7.1" y1="65.5" x2="21.2" y2="93.8"/>
					<line class="st1" x1="-6" y1="64.4" x2="22.2" y2="92.7"/>
					<line class="st1" x1="-5" y1="63.4" x2="23.3" y2="91.7"/>
					<line class="st1" x1="-4" y1="62.4" x2="24.3" y2="90.7"/>
					<line class="st1" x1="-2.9" y1="61.4" x2="25.3" y2="89.6"/>
					<line class="st1" x1="-1.9" y1="60.3" x2="26.4" y2="88.6"/>
					<line class="st1" x1="-0.9" y1="59.3" x2="27.4" y2="87.6"/>
					<line class="st1" x1="0.1" y1="58.3" x2="28.4" y2="86.5"/>
					<line class="st1" x1="1.2" y1="57.2" x2="29.5" y2="85.5"/>
					<line class="st1" x1="2.2" y1="56.2" x2="30.5" y2="84.5"/>
					<line class="st1" x1="3.2" y1="55.2" x2="31.5" y2="83.5"/>
					<line class="st1" x1="4.3" y1="54.1" x2="32.5" y2="82.4"/>
					<line class="st1" x1="5.3" y1="53.1" x2="33.6" y2="81.4"/>
					<line class="st1" x1="6.3" y1="52.1" x2="34.6" y2="80.4"/>
					<line class="st1" x1="7.3" y1="51.1" x2="35.6" y2="79.3"/>
					<line class="st1" x1="8.4" y1="50" x2="36.7" y2="78.3"/>
					<line class="st1" x1="9.4" y1="49" x2="37.7" y2="77.3"/>
					<line class="st1" x1="10.4" y1="48" x2="38.7" y2="76.3"/>
					<line class="st1" x1="11.5" y1="46.9" x2="39.7" y2="75.2"/>
					<line class="st1" x1="12.5" y1="45.9" x2="40.8" y2="74.2"/>
					<line class="st1" x1="13.5" y1="44.9" x2="41.8" y2="73.2"/>
					<line class="st1" x1="14.5" y1="43.9" x2="42.8" y2="72.1"/>
					<line class="st1" x1="15.6" y1="42.8" x2="43.9" y2="71.1"/>
					<line class="st1" x1="16.6" y1="41.8" x2="44.9" y2="70.1"/>
					<line class="st1" x1="17.6" y1="40.8" x2="45.9" y2="69.1"/>
					<line class="st1" x1="18.7" y1="39.7" x2="46.9" y2="68"/>
					<line class="st1" x1="19.7" y1="38.7" x2="48" y2="67"/>
					<line class="st1" x1="20.7" y1="37.7" x2="49" y2="66"/>
					<line class="st1" x1="21.8" y1="36.7" x2="50" y2="64.9"/>
				</g>
			</g>
		</g>
		<rect x="13.7" y="63.1" class="st1" width="15.5" height="4.2"/>
	</g>
</g>
<g>
	<polygon class="st1" points="237.5,51.7 232.4,58.9 242.6,58.9 	"/>
	<g>
		<g>
			<g>
				<defs>
					<rect id="SVGID_3_" x="229.7" y="58.9" width="15.5" height="4.2"/>
				</defs>
				<clipPath id="SVGID_4_">
					<use xlink:href="#SVGID_3_"  style="overflow:visible;"/>
				</clipPath>
				<g class="st3">
					<line class="st1" x1="207.9" y1="62.3" x2="236.2" y2="90.6"/>
					<line class="st1" x1="208.9" y1="61.3" x2="237.2" y2="89.6"/>
					<line class="st1" x1="210" y1="60.2" x2="238.2" y2="88.5"/>
					<line class="st1" x1="211" y1="59.2" x2="239.3" y2="87.5"/>
					<line class="st1" x1="212" y1="58.2" x2="240.3" y2="86.5"/>
					<line class="st1" x1="213.1" y1="57.2" x2="241.3" y2="85.4"/>
					<line class="st1" x1="214.1" y1="56.1" x2="242.4" y2="84.4"/>
					<line class="st1" x1="215.1" y1="55.1" x2="243.4" y2="83.4"/>
					<line class="st1" x1="216.1" y1="54.1" x2="244.4" y2="82.4"/>
					<line class="st1" x1="217.2" y1="53" x2="245.5" y2="81.3"/>
					<line class="st1" x1="218.2" y1="52" x2="246.5" y2="80.3"/>
					<line class="st1" x1="219.2" y1="51" x2="247.5" y2="79.3"/>
					<line class="st1" x1="220.3" y1="50" x2="248.5" y2="78.2"/>
					<line class="st1" x1="221.3" y1="48.9" x2="249.6" y2="77.2"/>
					<line class="st1" x1="222.3" y1="47.9" x2="250.6" y2="76.2"/>
					<line class="st1" x1="223.3" y1="46.9" x2="251.6" y2="75.1"/>
					<line class="st1" x1="224.4" y1="45.8" x2="252.7" y2="74.1"/>
					<line class="st1" x1="225.4" y1="44.8" x2="253.7" y2="73.1"/>
					<line class="st1" x1="226.4" y1="43.8" x2="254.7" y2="72.1"/>
					<line class="st1" x1="227.5" y1="42.7" x2="255.7" y2="71"/>
					<line class="st1" x1="228.5" y1="41.7" x2="256.8" y2="70"/>
					<line class="st1" x1="229.5" y1="40.7" x2="257.8" y2="69"/>
					<line class="st1" x1="230.5" y1="39.7" x2="258.8" y2="67.9"/>
					<line class="st1" x1="231.6" y1="38.6" x2="259.9" y2="66.9"/>
					<line class="st1" x1="232.6" y1="37.6" x2="260.9" y2="65.9"/>
					<line class="st1" x1="233.6" y1="36.6" x2="261.9" y2="64.9"/>
					<line class="st1" x1="234.7" y1="35.5" x2="262.9" y2="63.8"/>
					<line class="st1" x1="235.7" y1="34.5" x2="264" y2="62.8"/>
					<line class="st1" x1="236.7" y1="33.5" x2="265" y2="61.8"/>
					<line class="st1" x1="237.8" y1="32.5" x2="266" y2="60.7"/>
					<line class="st1" x1="238.8" y1="31.4" x2="267.1" y2="59.7"/>
				</g>
			</g>
		</g>
		<rect x="229.7" y="58.9" class="st1" width="15.5" height="4.2"/>
	</g>
</g>
<g>
	<g>
		<g>
			<g>
				<line class="st4" x1="129.5" y1="0" x2="129.5" y2="12.3"/>
				<g>
					<polygon class="st5" points="127,11.6 129.5,15.9 132,11.6 					"/>
				</g>
			</g>
		</g>
	</g>
	<text transform="matrix(1 0 0 1 133.5948 7.9353)" class="st5 st6 st7">F</text>
</g>
<g>
	<g>
		<line class="st1" x1="21.5" y1="72.3" x2="237.5" y2="72.3"/>
		<line class="st1" x1="21.5" y1="68.3" x2="21.5" y2="76.3"/>
		<line class="st1" x1="237.5" y1="68.3" x2="237.5" y2="76.3"/>
	</g>
	<text transform="matrix(1 0 0 1 121.4852 82.2996)" class="st6 st8">nelx</text>
</g>
<g>
	<g>
		<line class="st1" x1="15.4" y1="16.3" x2="15.4" y2="51.7"/>
		<line class="st1" x1="19.4" y1="16.3" x2="11.4" y2="16.3"/>
		<line class="st1" x1="19.4" y1="51.7" x2="11.4" y2="51.7"/>
	</g>
	<text transform="matrix(6.123234e-17 1 -1 6.123234e-17 4.2348 24.9083)" class="st6 st8">nely</text>
</g>
</svg>
