<?xml version="1.0" encoding="utf-8"?>
<!-- Generator: Adobe Illustrator 23.0.3, SVG Export Plug-In . SVG Version: 6.00 Build 0)  -->
<svg version="1.1" id="Layer_1" xmlns="http://www.w3.org/2000/svg" xmlns:xlink="http://www.w3.org/1999/xlink" x="0px" y="0px"
	 viewBox="0 0 275 205.5" style="enable-background:new 0 0 275 205.5;" xml:space="preserve">
<style type="text/css">
	.st0{fill:#919191;stroke:#000000;stroke-width:2;stroke-miterlimit:10;}
	.st1{clip-path:url(#SVGID_2_);}
	.st2{display:none;fill:none;stroke:#000000;stroke-miterlimit:10;}
	.st3{fill:none;stroke:#000000;stroke-miterlimit:10;}
	.st4{fill:none;stroke:#000000;stroke-width:2;stroke-miterlimit:10;}
	.st5{font-family:'TimesNewRomanPS-BoldItalicMT';}
	.st6{font-size:13px;}
	.st7{fill:#848484;}
	.st8{fill:none;stroke:#848484;stroke-miterlimit:10;}
	.st9{font-size:12px;}
	.st10{stroke:#000000;stroke-width:2;stroke-miterlimit:10;}
	.st11{clip-path:url(#SVGID_4_);}
	.st12{clip-path:url(#SVGID_6_);}
	.st13{fill:#FFFFFF;stroke:#000000;stroke-width:2;stroke-miterlimit:10;}
	.st14{font-family:'TimesNewRomanPSMT';}
	.st15{font-size:11px;}
</style>
<g>
	<polyline class="st0" points="91.4,25.3 91.4,181.3 247.2,181.3 247.2,25.3 91.2,25.3 	"/>
	<g>
		<g>
			<g>
				<g>
					<g>
						<g>
							<defs>
								<rect id="SVGID_1_" x="82" y="25.3" width="9.2" height="30"/>
							</defs>
							<clipPath id="SVGID_2_">
								<use xlink:href="#SVGID_1_"  style="overflow:visible;"/>
							</clipPath>
							<g class="st1">
								<line class="st2" x1="86.3" y1="21.1" x2="42.2" y2="42.5"/>
								<line class="st2" x1="88.2" y1="22" x2="44.1" y2="43.4"/>
								<line class="st3" x1="90" y1="22.9" x2="45.9" y2="44.3"/>
								<line class="st2" x1="91.9" y1="23.8" x2="47.8" y2="45.2"/>
								<line class="st3" x1="93.7" y1="24.7" x2="49.6" y2="46.1"/>
								<line class="st2" x1="95.6" y1="25.6" x2="51.5" y2="47"/>
								<line class="st3" x1="97.4" y1="26.5" x2="53.3" y2="47.9"/>
								<line class="st2" x1="99.3" y1="27.3" x2="55.2" y2="48.7"/>
								<line class="st3" x1="101.1" y1="28.3" x2="57" y2="49.7"/>
								<line class="st2" x1="103" y1="29.2" x2="58.9" y2="50.6"/>
								<line class="st3" x1="104.8" y1="30.1" x2="60.7" y2="51.5"/>
								<line class="st2" x1="106.7" y1="30.9" x2="62.6" y2="52.3"/>
								<line class="st3" x1="108.5" y1="31.9" x2="64.4" y2="53.3"/>
								<line class="st2" x1="110.4" y1="32.8" x2="66.3" y2="54.1"/>
								<line class="st3" x1="112.2" y1="33.7" x2="68.1" y2="55.1"/>
								<line class="st2" x1="114.1" y1="34.6" x2="70" y2="55.9"/>
								<line class="st3" x1="115.9" y1="35.4" x2="71.8" y2="56.8"/>
								<line class="st2" x1="117.8" y1="36.4" x2="73.7" y2="57.7"/>
								<line class="st3" x1="119.6" y1="37.2" x2="75.5" y2="58.6"/>
								<line class="st2" x1="121.5" y1="38.2" x2="77.4" y2="59.6"/>
								<line class="st2" x1="123.4" y1="39" x2="79.2" y2="60.4"/>
								<line class="st2" x1="125.2" y1="40" x2="81.1" y2="61.3"/>
								<line class="st2" x1="127.1" y1="40.8" x2="83" y2="62.2"/>
								<line class="st2" x1="128.9" y1="41.7" x2="84.8" y2="63.2"/>
								<line class="st2" x1="130.8" y1="42.6" x2="86.7" y2="64"/>
								<line class="st2" x1="132.6" y1="43.5" x2="88.5" y2="64.9"/>
								<line class="st2" x1="134.5" y1="44.4" x2="90.4" y2="65.8"/>
							</g>
						</g>
					</g>
				</g>
			</g>
			<rect x="82" y="25.3" class="st4" width="9.2" height="30"/>
		</g>
	</g>
</g>
<g>
	<g>
		<line class="st3" x1="92.5" y1="189.1" x2="247.2" y2="189.1"/>
		<line class="st3" x1="92.5" y1="185.1" x2="92.5" y2="193.1"/>
		<line class="st3" x1="247.2" y1="185.1" x2="247.2" y2="193.1"/>
	</g>
	<text transform="matrix(1 0 0 1 158.5605 201.4731)" class="st5 st6">nelx</text>
</g>
<g>
	<g>
		<line class="st3" x1="255.5" y1="25.3" x2="255.5" y2="181.3"/>
		<line class="st3" x1="259.5" y1="25.3" x2="251.5" y2="25.3"/>
		<line class="st3" x1="259.5" y1="181.3" x2="251.5" y2="181.3"/>
	</g>
	<text transform="matrix(6.123234e-17 -1 1 6.123234e-17 271.0137 114.4395)" class="st5 st6">nely</text>
</g>
<g>
	<g>
		<g>
			<g>
				<polygon class="st7" points="58.8,51.3 59.5,50.6 62.9,54.2 66.2,50.6 67,51.3 62.9,55.7 				"/>
			</g>
		</g>
	</g>
	<g>
		<g>
			<polyline class="st8" points="102.8,14.7 62.9,14.7 62.9,54.6 			"/>
			<g>
				<polygon class="st7" points="99.5,18.7 98.8,18 102.4,14.7 98.8,11.3 99.5,10.6 103.9,14.7 				"/>
			</g>
		</g>
	</g>
	<text transform="matrix(1 0 0 1 92.5337 9.9729)" class="st7 st5 st9">x</text>
	<text transform="matrix(1 0 0 1 50.9579 46.8832)" class="st7 st5 st9">y</text>
</g>
<g>
	<g>
		<g>
			<line class="st4" x1="247.1" y1="103.3" x2="219.6" y2="103.3"/>
			<g>
				<polygon class="st10" points="225.5,100.3 219,103.3 225.5,106.2 				"/>
			</g>
		</g>
	</g>
</g>
<g>
	<g>
		<g>
			<g>
				<g>
					<g>
						<defs>
							<rect id="SVGID_3_" x="82" y="151.3" width="9.2" height="30"/>
						</defs>
						<clipPath id="SVGID_4_">
							<use xlink:href="#SVGID_3_"  style="overflow:visible;"/>
						</clipPath>
						<g class="st11">
							<line class="st2" x1="86.3" y1="147.1" x2="42.2" y2="168.5"/>
							<line class="st2" x1="88.2" y1="148" x2="44.1" y2="169.4"/>
							<line class="st3" x1="90" y1="148.9" x2="45.9" y2="170.3"/>
							<line class="st2" x1="91.9" y1="149.8" x2="47.8" y2="171.2"/>
							<line class="st3" x1="93.7" y1="150.7" x2="49.6" y2="172.1"/>
							<line class="st2" x1="95.6" y1="151.6" x2="51.5" y2="173"/>
							<line class="st3" x1="97.4" y1="152.5" x2="53.3" y2="173.9"/>
							<line class="st2" x1="99.3" y1="153.3" x2="55.2" y2="174.7"/>
							<line class="st3" x1="101.1" y1="154.3" x2="57" y2="175.7"/>
							<line class="st2" x1="103" y1="155.2" x2="58.9" y2="176.6"/>
							<line class="st3" x1="104.8" y1="156.1" x2="60.7" y2="177.5"/>
							<line class="st2" x1="106.7" y1="156.9" x2="62.6" y2="178.3"/>
							<line class="st3" x1="108.5" y1="157.9" x2="64.4" y2="179.3"/>
							<line class="st2" x1="110.4" y1="158.8" x2="66.3" y2="180.1"/>
							<line class="st3" x1="112.2" y1="159.7" x2="68.1" y2="181.1"/>
							<line class="st2" x1="114.1" y1="160.6" x2="70" y2="181.9"/>
							<line class="st3" x1="115.9" y1="161.4" x2="71.8" y2="182.8"/>
							<line class="st2" x1="117.8" y1="162.4" x2="73.7" y2="183.7"/>
							<line class="st3" x1="119.6" y1="163.2" x2="75.5" y2="184.6"/>
							<line class="st2" x1="121.5" y1="164.2" x2="77.4" y2="185.6"/>
							<line class="st2" x1="123.4" y1="165" x2="79.2" y2="186.4"/>
							<line class="st2" x1="125.2" y1="166" x2="81.1" y2="187.3"/>
							<line class="st2" x1="127.1" y1="166.8" x2="83" y2="188.2"/>
							<line class="st2" x1="128.9" y1="167.7" x2="84.8" y2="189.2"/>
							<line class="st2" x1="130.8" y1="168.6" x2="86.7" y2="190"/>
							<line class="st2" x1="132.6" y1="169.5" x2="88.5" y2="190.9"/>
							<line class="st2" x1="134.5" y1="170.4" x2="90.4" y2="191.8"/>
						</g>
					</g>
				</g>
			</g>
		</g>
		<rect x="82" y="151.3" class="st4" width="9.2" height="30"/>
	</g>
</g>
<text transform="matrix(1 0 0 1 222.5947 92.7354)" class="st5 st6">u</text>
<text transform="matrix(0.583 0 0 0.583 229.8252 97.0645)" class="st5 st6">out</text>
<g>
	<g>
		<g>
			<line class="st4" x1="20" y1="103.3" x2="120" y2="103.3"/>
			<g>
				<polygon class="st10" points="114.2,106.2 120.6,103.3 114.2,100.3 				"/>
			</g>
		</g>
	</g>
</g>
<g>
	<g>
		<g>
			<g>
				<g>
					<g>
						<defs>
							<rect id="SVGID_5_" x="10.8" y="88.3" width="9.2" height="30"/>
						</defs>
						<clipPath id="SVGID_6_">
							<use xlink:href="#SVGID_5_"  style="overflow:visible;"/>
						</clipPath>
						<g class="st12">
							<line class="st2" x1="15.1" y1="84.1" x2="-29" y2="105.5"/>
							<line class="st2" x1="17" y1="85" x2="-27.1" y2="106.4"/>
							<line class="st3" x1="18.8" y1="85.9" x2="-25.3" y2="107.3"/>
							<line class="st2" x1="20.7" y1="86.8" x2="-23.4" y2="108.2"/>
							<line class="st3" x1="22.5" y1="87.7" x2="-21.6" y2="109.1"/>
							<line class="st2" x1="24.4" y1="88.6" x2="-19.7" y2="110"/>
							<line class="st3" x1="26.2" y1="89.5" x2="-17.9" y2="110.9"/>
							<line class="st2" x1="28.1" y1="90.3" x2="-16" y2="111.7"/>
							<line class="st3" x1="29.9" y1="91.3" x2="-14.2" y2="112.7"/>
							<line class="st2" x1="31.8" y1="92.2" x2="-12.3" y2="113.6"/>
							<line class="st3" x1="33.6" y1="93.1" x2="-10.5" y2="114.5"/>
							<line class="st2" x1="35.5" y1="93.9" x2="-8.6" y2="115.3"/>
							<line class="st3" x1="37.3" y1="94.9" x2="-6.8" y2="116.3"/>
							<line class="st2" x1="39.2" y1="95.8" x2="-4.9" y2="117.1"/>
							<line class="st3" x1="41" y1="96.7" x2="-3.1" y2="118.1"/>
							<line class="st2" x1="42.9" y1="97.6" x2="-1.2" y2="118.9"/>
							<line class="st3" x1="44.7" y1="98.4" x2="0.6" y2="119.8"/>
							<line class="st2" x1="46.6" y1="99.4" x2="2.5" y2="120.7"/>
							<line class="st3" x1="48.4" y1="100.2" x2="4.3" y2="121.6"/>
							<line class="st2" x1="50.3" y1="101.2" x2="6.2" y2="122.6"/>
							<line class="st2" x1="52.2" y1="102" x2="8" y2="123.4"/>
							<line class="st2" x1="54" y1="103" x2="9.9" y2="124.3"/>
							<line class="st2" x1="55.9" y1="103.8" x2="11.8" y2="125.2"/>
							<line class="st2" x1="57.7" y1="104.7" x2="13.6" y2="126.2"/>
							<line class="st2" x1="59.6" y1="105.6" x2="15.5" y2="127"/>
							<line class="st2" x1="61.4" y1="106.5" x2="17.3" y2="127.9"/>
							<line class="st2" x1="63.3" y1="107.4" x2="19.2" y2="128.8"/>
						</g>
					</g>
				</g>
			</g>
		</g>
		<rect x="10.8" y="88.3" class="st4" width="9.2" height="30"/>
	</g>
</g>
<g>
	<rect x="32.8" y="88.4" class="st13" width="47.8" height="29.7"/>
	<text transform="matrix(1 0 0 1 37.4438 106.17)" class="st14 st15">Actuator</text>
</g>
<text transform="matrix(1 0 0 1 50.9577 134.7548)" class="st5 st6">f</text>
<text transform="matrix(0.583 0 0 0.583 55.2868 139.0839)" class="st5 st6">in</text>
</svg>
